<svg width="64" height="64" viewBox="0 0 64 64" fill="none" xmlns="http://www.w3.org/2000/svg">
<path d="M42.8282 6.544C43.5781 7.29411 43.9993 8.31135 43.9993 9.372C43.9993 10.4327 43.5781 11.4499 42.8282 12.2L23.0282 32L42.8282 51.8C43.5568 52.5544 43.96 53.5648 43.9509 54.6136C43.9418 55.6624 43.5211 56.6657 42.7795 57.4073C42.0378 58.1489 41.0346 58.5696 39.9858 58.5787C38.937 58.5878 37.9266 58.1846 37.1722 57.456L14.5442 34.828C13.7943 34.0779 13.373 33.0607 13.373 32C13.373 30.9393 13.7943 29.9221 14.5442 29.172L37.1722 6.544C37.9223 5.79412 38.9395 5.37286 40.0002 5.37286C41.0609 5.37286 42.0781 5.79412 42.8282 6.544Z" fill="white"/>
</svg>
