<svg width="64" height="64" viewBox="0 0 64 64" fill="none" xmlns="http://www.w3.org/2000/svg">
<path d="M21.1718 57.456C20.4219 56.7059 20.0007 55.6887 20.0007 54.628C20.0007 53.5673 20.4219 52.5501 21.1718 51.8L40.9718 32L21.1718 12.2C20.4432 11.4456 20.04 10.4352 20.0491 9.38639C20.0582 8.3376 20.4789 7.33435 21.2205 6.59272C21.9622 5.85109 22.9654 5.43041 24.0142 5.4213C25.063 5.41219 26.0734 5.81536 26.8278 6.544L49.4558 29.172C50.2057 29.9221 50.627 30.9393 50.627 32C50.627 33.0607 50.2057 34.0779 49.4558 34.828L26.8278 57.456C26.0777 58.2059 25.0605 58.6271 23.9998 58.6271C22.9391 58.6271 21.9219 58.2059 21.1718 57.456Z" fill="white"/>
</svg>
